<?xml version="1.0" encoding="UTF-8"?><svg id="Calque_2" xmlns="http://www.w3.org/2000/svg" viewBox="0 0 442.41 467.72"><path fill="#F1F1F1" d="M442.41,199.05c-.36-15.78-19.73-26.86-29.14-32.65C321.8,110.08,324.47,31.67,238.91,6.86c-12.03-3.49-33.12-9.4-59.72-5.67C80.39,15.06,40.97,144.36,7.88,233.96c-6.36,17.22-13.83,44.81-.35,61.11,4.98,6.02,11.6,8.96,42.19,13.43,78.77,11.5,100.32,1.52,109.56-5.63,3.32-2.57,10.62-8.22,10.88-16.57,.21-6.88-4.46-12.2-6.67-14.41-22.91,7.84-80.64,8.72-112.03-.87-14.08-4.3-16.44-8.44-16.92-10.75-1.19-5.74,5.28-11.91,14.31-18.89,28.88-22.35,48.82-28.77,48.82-28.77,35.62-11.46,72.11-13.86,107.23-16.56,20.77-1.6,98.26-7.69,170.87,.87,8.88,1.05,25.84,3.29,26.99,9.81,1.62,9.15-27.4,20.93-33.97,23.32-50.38,18.32-87.85,13.81-97.57,25.58-4.16-10.64-7.89-18.8-10.42-23.03-12.1-20.17-31.1-16.6-41.02-16.81-9.92-.21-34.38,7.48-30.59,35.64,.49,11.37,3.7,50.43-7.73,67.24-11.77,22.86-48.12,88.93-35.97,112.62,8.66,16.89,19.5,34.29,66.9,36.31,47.4,2.02,65.56-17.82,82.7-61.52,11.19-28.54-1.69-85.16-15.35-126.64,59.71-7.43,100.23-26.19,124.36-40.23,32.66-19.01,38.5-31.22,38.29-40.14Zm-349.64-23.28c-7.08,9.95-18.82,13.75-26.22,8.49-7.4-5.26-7.67-17.6-.59-27.55s18.82-13.75,26.22-8.49c7.4,5.26,7.67,17.6,.59,27.55Zm49.57-94.09c-5.17-6.12,.61-19.49,12.89-29.87,12.29-10.38,26.44-13.84,31.6-7.72,5.17,6.12-.61,19.49-12.89,29.87s-26.44,13.84-31.6,7.72Zm71.38,66.99c-14.84,14.84-32.85,20.88-40.24,13.49s-1.34-25.4,13.49-40.24c14.84-14.84,32.85-20.88,40.24-13.49,7.39,7.39,1.34,25.4-13.49,40.24Zm77.25-45.5c-7.92,5.85-22.32-.21-32.16-13.54-9.84-13.33-11.41-28.87-3.49-34.72,7.92-5.85,22.32,.21,32.16,13.54,9.84,13.33,11.41,28.87,3.49,34.72Zm70.78,64.64c-5.26,7.4-17.6,7.67-27.55,.59-9.95-7.08-13.75-18.82-8.49-26.22,5.26-7.4,17.6-7.67,27.55-.59s13.75,18.82,8.49,26.22Z"/></svg>